<svg width="512" height="512" viewBox="0 0 512 512" fill="none" xmlns="http://www.w3.org/2000/svg">
<g clip-path="url(#clip0_4_2)">
<mask id="mask0_4_2" style="mask-type:alpha" maskUnits="userSpaceOnUse" x="24" y="24" width="467" height="466">
<path d="M176.938 24.03V75.44C123.978 82.155 81.978 124.092 75.218 177.033H24.564V337.129H75.314C82.348 389.749 124.209 431.376 176.938 438.067V489.5H337V438.126C390.01 431.673 432.158 389.943 439.22 337.126H490.031V177.03H439.314C432.526 123.893 390.238 81.85 337 75.376V24.03H176.938ZM195.625 42.72H318.313V182.47L257.25 243.5L195.625 181.875V42.72ZM257.281 60.156C232.757 60.156 212.876 80.036 212.876 104.563C212.876 129.088 232.756 148.969 257.282 148.969C281.806 148.969 301.658 129.087 301.658 104.562C301.658 80.036 281.808 60.155 257.283 60.155L257.281 60.156ZM43.25 195.72H183.03L244.062 256.75L182.344 318.438H43.25V195.718V195.72ZM331.5 195.72H471.344V318.438H332.188L270.5 256.75L331.5 195.72ZM105.094 212.344C80.569 212.344 60.688 232.224 60.688 256.75C60.688 281.275 80.568 301.156 105.094 301.156C129.619 301.156 149.5 281.276 149.5 256.75C149.5 232.227 129.62 212.344 105.094 212.344ZM409.438 212.344C384.912 212.344 365.031 232.224 365.031 256.75C365.031 281.275 384.913 301.156 409.439 301.156C433.964 301.156 453.845 281.276 453.845 256.75C453.845 232.227 433.965 212.344 409.439 212.344H409.438ZM257.25 269.938L318.313 331V470.813H195.625V331.593L257.25 269.938ZM257.28 364.5C232.756 364.5 212.875 384.38 212.875 408.906C212.875 433.431 232.755 453.312 257.281 453.312C281.805 453.312 301.657 433.432 301.657 408.906C301.657 384.381 281.807 364.5 257.282 364.5H257.28Z" fill="black"/>
</mask>
<g mask="url(#mask0_4_2)">
<rect x="25" y="-10" width="232.735" height="532" fill="#A60A0A"/>
<rect x="258" y="-9" width="232.735" height="532" fill="#200AA6"/>
</g>
</g>
<defs>
<clipPath id="clip0_4_2">
<rect width="512" height="512" fill="white" transform="matrix(1 0 0 -1 0 512)"/>
</clipPath>
</defs>
</svg>
